# xmcd
#
# Track frame offsets:
#	150
#	8525
#	22122
#	31574
#	39669
#	49619
#	58137
#	69855
#	83240
#	100433
#	109551
#	126028
#	135798
#	146778
#	156233
#	167978
#	182490
#	190208
#	201783
#	214085
#	228208
#	240880
#	250612
#
# Disc length: 3496 seconds
#
# Revision: 0
# Processed by: cddbd v1.5.2PL0 Copyright (c) Steve Scherf et al.
# Submitted via: audiograbber 1.83.01
#
DISCID=260da617
DTITLE=Johnny Cash - 1959
DYEAR=1959
DGENRE=
TTITLE0=Wo ist zu Hause, Mama
TTITLE1=Tennessee Flat Top Box
TTITLE2=I got stripes (Viel zu spät)
TTITLE3=5 feet high and rising
TTITLE4=You're missing and so do I
TTITLE5=The Rebel Johnny Yuma
TTITLE6=Shamrock doesn't grow in California
TTITLE7=I ride an old Paint
TTITLE8=Toombstone
TTITLE9=Lost on the desert to die
TTITLE10=Streets of Laredo
TTITLE11=The man on the hill
TTITLE12=Bury me not
TTITLE13=Old Caretaker
TTITLE14=Letter from home
TTITLE15=25 minutes to go
TTITLE16=Old Apache Squaw
TTITLE17=Don't step on mother's roses
TTITLE18=My Grandfather's Clock
TTITLE19=The devil in hell
TTITLE20=Remember the Alamo
TTITLE21=Viel zu spät (I got stripes)
TTITLE22=In them old cotton fields back home
EXTD=
EXTT0=
EXTT1=
EXTT2=
EXTT3=
EXTT4=
EXTT5=
EXTT6=
EXTT7=
EXTT8=
EXTT9=
EXTT10=
EXTT11=
EXTT12=
EXTT13=
EXTT14=
EXTT15=
EXTT16=
EXTT17=
EXTT18=
EXTT19=
EXTT20=
EXTT21=
EXTT22=
PLAYORDER=
